<svg width="24" height="24" xmlns="http://www.w3.org/2000/svg">
    <defs>
        <linearGradient y2="0" x2="1" y1="0" x1="0" id="svg_6">
            <stop offset="0" stop-color="#00bfbf" />
            <stop stop-opacity="0.99609" offset="1" stop-color="#ff00ff" />
        </linearGradient>
        <linearGradient y2="0" x2="1" y1="0" x1="0" id="svg_11">
            <stop offset="0" stop-opacity="0.99609" stop-color="#9900aa" />
            <stop offset="1" stop-color="#00ffff" />
        </linearGradient>
    </defs>
    <g>
        <ellipse fill="#ffffff" cx="12.02921" cy="12.06676" id="svg_8" rx="9.39833" ry="9.574" />
        <ellipse fill="url(#svg_11)" cx="12" cy="12.61572" id="svg_5" rx="9.04699" ry="8.54194"
            transform="rotate(-180, 12, 12.6157)" fill-opacity="0.39" />
        <path id="svg_3"
            d="m12,22.00667c-5.51736,0 -10.00667,-4.48931 -10.00667,-10.00667s4.48931,-10.00667 10.00667,-10.00667s10.00667,4.48931 10.00667,10.00667s-4.48931,10.00667 -10.00667,10.00667zm0,-17.90666c-4.64625,0 -8.42667,3.78041 -8.42667,8.42667s3.78041,8.42667 8.42667,8.42667s8.42667,-3.78041 8.42667,-8.42667s-3.78041,-8.42667 -8.42667,-8.42667z"
            fill="url(#svg_11)" />
        <g id="svg_7">
            <path fill="#e5e5e5" id="svg_4"
                d="m18.52699,10.01753c-1.31097,0 -1.22989,2.5527 -1.84848,3.70881c-0.10386,0.19223 -0.38719,0.16763 -0.45551,-0.04008c-0.70241,-2.15368 -0.38172,-7.38663 -2.28669,-7.38663c-1.99424,0 -1.50138,6.77169 -2.27757,9.5312c-0.05739,0.20954 -0.34711,0.22776 -0.43182,0.02551c-0.81993,-1.96873 -0.72791,-6.26334 -2.2794,-6.26334c-1.60523,0 -1.46859,3.59766 -2.09719,5.04711c-0.0829,0.19405 -0.35713,0.20042 -0.44914,0.00912c-0.45825,-0.95567 -0.60492,-2.88342 -2.33589,-2.88342l-2.01612,0c-0.25054,0 -0.4546,0.20408 -0.4546,0.4546s0.20408,0.45643 0.4546,0.45643l2.01612,0c1.43214,0 0.94565,3.17404 2.60009,3.17404c1.53418,0 1.36837,-3.45281 2.02522,-4.98334c0.08017,-0.18949 0.34801,-0.18403 0.42455,0.00547c0.73337,1.86488 0.71971,6.35899 2.40603,6.35899c1.89221,0 1.21805,-7.15706 2.22564,-9.67606c0.07561,-0.19223 0.34984,-0.20225 0.43638,-0.01093c0.93745,2.04982 0.44367,7.40304 2.13546,7.40304c1.49318,0 1.58247,-2.46525 2.0316,-3.67874c0.07379,-0.19313 0.33982,-0.20681 0.43182,-0.02459c0.47009,0.91194 0.77073,2.34318 2.18647,2.34318l2.03615,0c0.25054,0 0.4546,-0.20408 0.4546,-0.4546c0,-0.25145 -0.20408,-0.45551 -0.4546,-0.45551l-2.03615,0c-1.20529,0 -1.01762,-2.66021 -2.44156,-2.66021l-0.00002,-0.00002l0.00001,-0.00003z" />
            <path fill="#c9c9c9" id="svg_1"
                d="m17.47309,10.19317c-1.31097,0 -1.22989,2.5527 -1.84848,3.70881c-0.10386,0.19223 -0.38719,0.16763 -0.45551,-0.04008c-0.70241,-2.15368 -0.38172,-7.38663 -2.28669,-7.38663c-1.99424,0 -1.50138,6.77169 -2.27757,9.5312c-0.05739,0.20954 -0.34711,0.22776 -0.43182,0.02551c-0.81993,-1.96873 -0.72791,-6.26334 -2.2794,-6.26334c-1.60523,0 -1.46859,3.59766 -2.09719,5.04711c-0.0829,0.19405 -0.35713,0.20042 -0.44914,0.00912c-0.45825,-0.95567 -0.60492,-2.88342 -2.33589,-2.88342l-2.01612,0c-0.25054,0 -0.4546,0.20408 -0.4546,0.4546s0.20408,0.45643 0.4546,0.45643l2.01612,0c1.43214,0 0.94565,3.17404 2.60009,3.17404c1.53418,0 1.36837,-3.45281 2.02522,-4.98334c0.08017,-0.18949 0.34801,-0.18403 0.42455,0.00547c0.73337,1.86488 0.71971,6.35899 2.40603,6.35899c1.89221,0 1.21805,-7.15706 2.22564,-9.67606c0.07561,-0.19223 0.34984,-0.20225 0.43638,-0.01093c0.93745,2.04982 0.44367,7.40304 2.13546,7.40304c1.49318,0 1.58247,-2.46525 2.0316,-3.67874c0.07379,-0.19313 0.33982,-0.20681 0.43182,-0.02459c0.47009,0.91194 0.77073,2.34318 2.18647,2.34318l2.03615,0c0.25054,0 0.4546,-0.20408 0.4546,-0.4546c0,-0.25145 -0.20408,-0.45551 -0.4546,-0.45551l-2.03615,0c-1.20529,0 -1.01762,-2.66021 -2.44156,-2.66021l-0.00002,-0.00002l0.00001,-0.00003z" />
            <path stroke-dasharray="5,2,2,2,2,2" stroke-width="0.2" stroke="#a305ff" fill="url(#svg_6)" id="svg_2"
                d="m18.00004,10.48592c-1.31097,0 -1.22989,2.5527 -1.84848,3.70881c-0.10386,0.19223 -0.38719,0.16763 -0.45551,-0.04008c-0.70241,-2.15368 -0.38172,-7.38663 -2.28669,-7.38663c-1.99424,0 -1.50138,6.77169 -2.27757,9.5312c-0.05739,0.20954 -0.34711,0.22776 -0.43182,0.02551c-0.81993,-1.96873 -0.72791,-6.26334 -2.2794,-6.26334c-1.60523,0 -1.46859,3.59766 -2.09719,5.04711c-0.0829,0.19405 -0.35713,0.20042 -0.44914,0.00912c-0.45825,-0.95567 -0.60492,-2.88342 -2.33589,-2.88342l-2.01612,0c-0.25054,0 -0.4546,0.20408 -0.4546,0.4546s0.20408,0.45643 0.4546,0.45643l2.01612,0c1.43214,0 0.94565,3.17404 2.60009,3.17404c1.53418,0 1.36837,-3.45281 2.02522,-4.98334c0.08017,-0.18949 0.34801,-0.18403 0.42455,0.00547c0.73337,1.86488 0.71971,6.35899 2.40603,6.35899c1.89221,0 1.21805,-7.15706 2.22564,-9.67606c0.07561,-0.19223 0.34984,-0.20225 0.43638,-0.01093c0.93745,2.04982 0.44367,7.40304 2.13546,7.40304c1.49318,0 1.58247,-2.46525 2.0316,-3.67874c0.07379,-0.19313 0.33982,-0.20681 0.43182,-0.02459c0.47009,0.91194 0.77073,2.34318 2.18647,2.34318l2.03615,0c0.25054,0 0.4546,-0.20408 0.4546,-0.4546c0,-0.25145 -0.20408,-0.45551 -0.4546,-0.45551l-2.03615,0c-1.20529,0 -1.01762,-2.66021 -2.44156,-2.66021l-0.00002,-0.00002l0.00001,-0.00003z" />
        </g>
    </g>
</svg>